<svg xmlns="http://www.w3.org/2000/svg" width="135.452" height="108.904" viewBox="0 0 35.838365 28.814185"><defs><path id="y" d="M10.597 21.056c2.308 0 2.797-.157 3.584-1.957l-.18.3-5.237-9.36h1.696l4.315 7.884 3.882-7.885h1.626l-5.036 10.02c-.926 1.835-1.557 2.184-4.65 2.22z"/><path id="q" d="M25.22 18.097c0-1.014-.612-1.24-1.368-1.24H20.66c-.758 0-1.37.226-1.37 1.24v2.188c0 1.014.612 1.24 1.37 1.24h3.488c.604 0 .753-.238.978-.56l-2.333-1.48.354-.555 2.072 1.26zm.565 3.255c-.24.5-.992.815-1.853.815h-3.354c-1.577 0-2.075-.708-2.075-2.18v-1.592c0-1.472.498-2.18 2.075-2.18h3.354c1.576 0 2.075.708 2.075 2.18v2.185c-.02.31-.01-.198-.074.068l.833.556-.37.555-.61-.41"/></defs><mask id="yq"><rect width="100%" height="100%" fill= "#fff"/><use href="#y"/><use href="#q"/></mask><path id="main" d="M23.973 1.324c1.056 0 2.364.74 2.907 1.643l5.907 9.8c.544.905.54 2.38-.008 3.28l-5.98 9.807c-.55.9-1.86 1.64-2.917 1.638h-12.02c-1.055-.002-2.363-.74-2.907-1.644l-5.905-9.8c-.544-.904-.54-2.38.01-3.28L9.034 2.96c.55-.9 1.862-1.636 2.916-1.637h12.025" mask="url(#yq)" fill="#0b93a2"/></svg>