<svg xmlns="http://www.w3.org/2000/svg" width="643.343" height="108.904" viewBox="0 0 170.21771 28.814185"><path d="M158.352 1.324c1.056 0 2.364.74 2.908 1.643l5.906 9.8c.545.905.54 2.38-.008 3.28l-5.977 9.806c-.547.9-1.86 1.64-2.915 1.638h-12.022c-1.055-.002-2.362-.74-2.906-1.644l-5.906-9.8c-.543-.904-.54-2.38.01-3.28l5.975-9.805c.55-.9 1.862-1.636 2.916-1.637h12.022" fill="#0b93a2"/><path d="M159.598 18.097c0-1.014-.61-1.24-1.367-1.24h-3.192c-.757 0-1.368.226-1.368 1.24v2.188c0 1.014.61 1.24 1.368 1.24h3.49c.603 0 .752-.238.978-.56l-2.334-1.48.354-.555 2.072 1.26zm.566 3.255c-.24.5-.992.815-1.853.815h-3.353c-1.576 0-2.075-.708-2.075-2.18v-1.592c0-1.472.5-2.18 2.075-2.18h3.354c1.578 0 2.076.708 2.076 2.18v2.185c-.02.31-.01-.198-.074.068l.833.556-.37.555-.61-.408" fill="#fff"/><path d="M159.598 18.097c0-1.014-.61-1.24-1.367-1.24h-3.192c-.757 0-1.368.226-1.368 1.24v2.188c0 1.014.61 1.24 1.368 1.24h3.49c.603 0 .752-.238.978-.56l-2.334-1.48.354-.555 2.072 1.26zm.566 3.255c-.24.5-.992.815-1.853.815h-3.353c-1.576 0-2.075-.708-2.075-2.18v-1.592c0-1.472.5-2.18 2.075-2.18h3.354c1.578 0 2.076.708 2.076 2.18v2.185c-.02.31-.01-.198-.074.068l.833.556-.37.555z" fill="none" stroke="#fff" stroke-width=".248"/><path d="M144.976 21.056c2.31 0 2.798-.157 3.585-1.957l-.18.303-5.24-9.36h1.697l4.318 7.884 3.88-7.885h1.627l-5.035 10.018c-.926 1.836-1.556 2.185-4.65 2.22v-1.224" fill="#fff"/><path d="M144.976 21.056c2.31 0 2.798-.157 3.585-1.957l-.18.303-5.24-9.36h1.697l4.318 7.884 3.88-7.885h1.627l-5.035 10.018c-.926 1.836-1.556 2.185-4.65 2.22z" fill="none" stroke="#fff" stroke-width=".094"/><path d="M5.262 23.386c3.194 0 3.872-.218 4.96-2.71l-.23.517L2.72 8.137h2.348l5.978 10.916L16.42 8.137h2.25l-6.97 13.87c-1.283 2.54-2.155 3.024-6.438 3.073v-1.694" fill="#46464a"/><path d="M5.262 23.386c3.194 0 3.872-.218 4.96-2.71l-.23.517L2.72 8.137h2.348l5.978 10.916L16.42 8.137h2.25l-6.97 13.87c-1.283 2.54-2.155 3.024-6.438 3.073z" fill="none" stroke="#46464a" stroke-width=".087"/><path d="M33.74 13.075c0-2.88-1.695-3.437-4.116-3.437H25.39c-2.422 0-4.116.556-4.116 3.437v2.468c0 2.88 1.694 3.438 4.115 3.438h4.234c2.42 0 4.116-.556 4.116-3.437zm-14.547-.122c0-4.066 2.88-5.01 6.825-5.01h2.977c3.946 0 6.827.944 6.827 5.01v2.712c0 4.066-2.88 5.01-6.827 5.01h-2.977c-3.945 0-6.825-.944-6.825-5.01v-2.712" fill="#46464a"/><path d="M33.74 13.075c0-2.88-1.695-3.437-4.116-3.437H25.39c-2.422 0-4.116.556-4.116 3.437v2.468c0 2.88 1.694 3.438 4.115 3.438h4.234c2.42 0 4.116-.556 4.116-3.437zm-14.547-.122c0-4.066 2.88-5.01 6.825-5.01h2.977c3.946 0 6.827.944 6.827 5.01v2.712c0 4.066-2.88 5.01-6.827 5.01h-2.977c-3.945 0-6.825-.944-6.825-5.01z" fill="none" stroke="#46464a" stroke-width=".087"/><path d="M87.885 12.154c0-1.258-.944-2.516-4.332-2.516h-3.05c-3.292 0-4.067.532-4.26 3.34h11.642zm-13.724.775c0-4.48 3.1-4.987 6.052-4.987h3.34c3.728 0 6.414.944 6.414 5.35v1.38H76.243v.773c0 2.808 1.355 3.535 4.985 3.535h2.857c2.615 0 3.68-.338 3.8-2.227h2.08v.243c0 2.832-2.346 3.68-6.22 3.68H79.97c-2.71 0-5.81-.51-5.81-5.06V12.93" fill="#46464a"/><path d="M87.885 12.154c0-1.258-.944-2.516-4.332-2.516h-3.05c-3.292 0-4.067.532-4.26 3.34h11.642zm-13.724.775c0-4.48 3.1-4.987 6.052-4.987h3.34c3.728 0 6.414.944 6.414 5.35v1.38H76.243v.773c0 2.808 1.355 3.535 4.985 3.535h2.857c2.615 0 3.68-.338 3.8-2.227h2.08v.243c0 2.832-2.346 3.68-6.22 3.68H79.97c-2.71 0-5.81-.51-5.81-5.06z" fill="none" stroke="#46464a" stroke-width=".087"/><path d="M105.97 12.154c0-1.258-.944-2.516-4.332-2.516h-3.05c-3.29 0-4.067.532-4.26 3.34h11.643zm-13.724.775c0-4.48 3.1-4.987 6.05-4.987h3.342c3.727 0 6.414.944 6.414 5.35v1.38H94.328v.773c0 2.808 1.355 3.535 4.987 3.535h2.855c2.614 0 3.68-.338 3.8-2.227h2.082v.243c0 2.832-2.348 3.68-6.22 3.68h-3.776c-2.71 0-5.81-.51-5.81-5.06V12.93" fill="#46464a"/><path d="M105.97 12.154c0-1.258-.944-2.516-4.332-2.516h-3.05c-3.29 0-4.067.532-4.26 3.34h11.643zm-13.724.775c0-4.48 3.1-4.987 6.05-4.987h3.342c3.727 0 6.414.944 6.414 5.35v1.38H94.328v.773c0 2.808 1.355 3.535 4.987 3.535h2.855c2.614 0 3.68-.338 3.8-2.227h2.082v.243c0 2.832-2.348 3.68-6.22 3.68h-3.776c-2.71 0-5.81-.51-5.81-5.06z" fill="none" stroke="#46464a" stroke-width=".087"/><path d="M124.39 11.962c0-2.118-1.277-2.588-2.857-2.588h-6.672c-1.58 0-2.857.47-2.857 2.588v4.572c0 2.118 1.278 2.59 2.858 2.59h7.294c1.26 0 1.572-.496 2.043-1.168l-4.875-3.093.74-1.16 4.328 2.632zm1.183 6.8c-.503 1.045-2.072 1.706-3.87 1.706h-7.01c-3.294 0-4.337-1.48-4.337-4.556v-3.328c0-3.076 1.043-4.555 4.336-4.555h7.01c3.295 0 4.337 1.478 4.337 4.554v4.568c-.04.645-.024-.414-.158.14l1.74 1.16-.772 1.162-1.277-.85" fill="#46464a"/><path d="M124.39 11.962c0-2.118-1.277-2.588-2.857-2.588h-6.672c-1.58 0-2.857.47-2.857 2.588v4.572c0 2.118 1.278 2.59 2.858 2.59h7.294c1.26 0 1.572-.496 2.043-1.168l-4.875-3.093.74-1.16 4.328 2.632zm1.183 6.8c-.503 1.045-2.072 1.706-3.87 1.706h-7.01c-3.294 0-4.337-1.48-4.337-4.556v-3.328c0-3.076 1.043-4.555 4.336-4.555h7.01c3.295 0 4.337 1.478 4.337 4.554v4.568c-.04.645-.024-.414-.158.14l1.74 1.16-.772 1.162z" fill="none" stroke="#46464a" stroke-width=".474"/><path d="M63.077 8.02H66.6c3.366.005 5.185 1.128 5.234 4.49v8.04h-2.082v-7.843c-.252-1.823-.484-2.983-4.55-3.002H63.12" fill="#46464a"/><path d="M63.077 8.02H66.6c3.366.005 5.185 1.128 5.234 4.49v8.04h-2.082v-7.843c-.252-1.823-.484-2.983-4.55-3.002H63.12" fill="none" stroke="#46464a" stroke-width=".087"/><path d="M64.825 9.705h-2.082c-4.065.02-4.298 1.18-4.55 3.002v7.842H56.11v-8.04c.05-3.362 1.87-4.485 5.236-4.49h3.522" fill="#46464a"/><path d="M64.825 9.705h-2.082c-4.065.02-4.298 1.18-4.55 3.002v7.842H56.11v-8.04c.05-3.362 1.87-4.485 5.236-4.49h3.522" fill="none" stroke="#46464a" stroke-width=".087"/><path d="M45.09 19.02h2.08c4.068-.018 4.3-1.18 4.552-3.002V8.176h2.08v8.04c-.048 3.36-1.866 4.484-5.234 4.488h-3.522" fill="#46464a"/><path d="M45.09 19.02h2.08c4.068-.018 4.3-1.18 4.552-3.002V8.176h2.08v8.04c-.048 3.36-1.866 4.484-5.234 4.488h-3.522" fill="none" stroke="#46464a" stroke-width=".087"/><path d="M46.838 20.704h-3.523c-3.366-.004-5.185-1.127-5.234-4.488v-8.04h2.083v7.842c.25 1.823.484 2.984 4.55 3.002h2.082" fill="#46464a"/><path d="M46.838 20.704h-3.523c-3.366-.004-5.185-1.127-5.234-4.488v-8.04h2.083v7.842c.25 1.823.484 2.984 4.55 3.002h2.082" fill="none" stroke="#46464a" stroke-width=".087"/></svg>